<svg xmlns="http://www.w3.org/2000/svg" viewBox="0 0 240 240">
  <!-- Boardhang final: "Resin Jug b" in brand blue — open mark, no tile. Same jug as the
       app-icon version, scaled up to fill the frame; the bolt hole is punched transparent
       so any background shows through, with the green LED seated in it.
       Colors: #3B82F6 hold, #34D97B LED (single subtle radial glow). -->
  <defs>
    <radialGradient id="bhLedGlowOpen" cx="0.5" cy="0.5" r="0.5">
      <stop offset="0" stop-color="#34D97B" stop-opacity="0.55"/>
      <stop offset="1" stop-color="#34D97B" stop-opacity="0"/>
    </radialGradient>
  </defs>
  <g transform="translate(-32.4 -24.5) scale(1.187)">
    <path fill="#3B82F6" fill-rule="evenodd" d="
      M63 70
      C60 50 68 38 84 38
      C97 38 103 48 101 62
      C100 76 98 88 97 102
      C100 98 106 93 118 91
      C130 89 144 89 156 93
      C176 99 190 114 194 134
      C197 152 193 172 181 186
      C175 193 167 198 157 201
      C152 203 148 203 142 203
      L80 203
      C70 203 64 198 63 188
      C62 168 66 148 64 126
      C62 106 64 88 63 70
      Z
      M171 146 a25 25 0 1 0 -50 0 a25 25 0 1 0 50 0 Z"/>
    <circle cx="146" cy="146" r="21" fill="url(#bhLedGlowOpen)"/>
    <circle cx="146" cy="146" r="9" fill="#34D97B"/>
  </g>
</svg>
